<svg width="19" height="18" viewBox="0 0 19 18" fill="none" xmlns="http://www.w3.org/2000/svg">
<path d="M5.07389 2.66069C5.04951 1.55392 4.25805 0.710938 2.97284 0.710938C1.68764 0.710938 0.847412 1.55392 0.847412 2.66069C0.847412 3.74453 1.6628 4.61179 2.92408 4.61179H2.94808C4.25805 4.61179 5.07389 3.74453 5.07389 2.66069Z" fill="white"/>
<path d="M4.82646 6.15254H1.06957V17.4404H4.82646V6.15254Z" fill="white"/>
<path d="M14.0496 5.88745C16.5219 5.88745 18.3752 7.50111 18.3752 10.9683L18.3751 17.4404H14.6183V11.4014C14.6183 9.88449 14.0747 8.84942 12.7147 8.84942C11.6768 8.84942 11.0586 9.54721 10.787 10.2212C10.6877 10.4627 10.6633 10.7992 10.6633 11.1366V17.4407H6.90598C6.90598 17.4407 6.9555 7.212 6.90598 6.15281H10.6633V7.75164C11.1619 6.98305 12.055 5.88745 14.0496 5.88745Z" fill="white"/>
</svg>
