<svg width="25" height="24" viewBox="0 0 25 24" fill="none" xmlns="http://www.w3.org/2000/svg">
<path d="M17.2361 3.5H7.23608C4.23608 3.5 2.23608 5 2.23608 8.5V15.5C2.23608 19 4.23608 20.5 7.23608 20.5H17.2361C20.2361 20.5 22.2361 19 22.2361 15.5V8.5C22.2361 5 20.2361 3.5 17.2361 3.5ZM17.7061 9.59L14.5761 12.09C13.9161 12.62 13.0761 12.88 12.2361 12.88C11.3961 12.88 10.5461 12.62 9.89608 12.09L6.76608 9.59C6.44608 9.33 6.39608 8.85 6.64608 8.53C6.90608 8.21 7.37608 8.15 7.69608 8.41L10.8261 10.91C11.5861 11.52 12.8761 11.52 13.6361 10.91L16.7661 8.41C17.0861 8.15 17.5661 8.2 17.8161 8.53C18.0761 8.85 18.0261 9.33 17.7061 9.59Z" fill="white"/>
</svg>
